<svg viewBox="324.0016 311.8281 396.6314 103.3751" width="5000" height="1303.1633400683859" xmlns="http://www.w3.org/2000/svg" xmlns:xlink="http://www.w3.org/1999/xlink" preserveAspectRatio="none"><defs></defs><style>.a6izo4zJpcolor {fill:#000000;fill-opacity:1;}.aB7crM0kCifillColor {fill:#42A5FF;fill-opacity:0;}.aD6z1nYkhcolor {fill:#000000;fill-opacity:1;}.aIptOCySncolors-0 {fill:#42A5FF;fill-opacity:1;}.aPrOn7e-ms0filter-floo {flood-color:#DF1313;flood-opacity:0.5;}.atBXipXk0bfillColor {fill:#42A5FF;fill-opacity:0;}.icon3-str {stroke:#FFD4D4;stroke-opacity:0.95;}.text-str {stroke:#42A5FF;stroke-opacity:1;}</style><defs>
      <filter
        x="324.0016"
        y="327.5002"
        width="109.7056"
        height="85.3894"
        id="PrOn7e-ms"
        filterUnits="userSpaceOnUse"
        primitiveUnits="userSpaceOnUse"
        color-interpolation-filters="sRGB">
        <feMerge><feMergeNode in="SourceGraphic" /></feMerge>
      </filter></defs><g opacity="1" transform="rotate(0 448.508 324.8284)">
<svg width="272.125" height="90.3748" x="448.508" y="324.8284" version="1.1" preserveAspectRatio="none" viewBox="0 0 272.125 90.3748">
  <rect x="0" y="0" width="272.125" height="90.3748" class="aB7crM0kCifillColor text-str" style="stroke-width:0;" rx="0px" ry="0px" />
</svg>
</g><g opacity="1" transform="rotate(0 448.508 397.2029)">
<svg width="262.1207" height="10.6867" x="448.508" y="397.2029" version="1.1" preserveAspectRatio="none" viewBox="1.64 -30.28 938.9200000000001 38.28">
  <g transform="matrix(1 0 0 1 0 0)" class="a6izo4zJpcolor"><path id="id-6izo4zJp42" d="M12.36 0.32Q9.20 0.32 6.26-0.66Q3.32-1.64 1.64-3.20L1.64-3.20L3.12-6.32Q4.72-4.88 7.22-3.98Q9.72-3.08 12.36-3.08L12.36-3.08Q15.84-3.08 17.56-4.26Q19.28-5.44 19.28-7.40L19.28-7.40Q19.28-8.84 18.34-9.74Q17.40-10.64 16.02-11.12Q14.64-11.60 12.12-12.20L12.12-12.20Q8.96-12.96 7.02-13.72Q5.08-14.48 3.70-16.06Q2.32-17.64 2.32-20.32L2.32-20.32Q2.32-22.56 3.50-24.36Q4.68-26.16 7.08-27.24Q9.48-28.32 13.04-28.32L13.04-28.32Q15.52-28.32 17.92-27.68Q20.32-27.04 22.04-25.84L22.04-25.84L20.72-22.64Q18.96-23.76 16.96-24.34Q14.96-24.92 13.04-24.92L13.04-24.92Q9.64-24.92 7.94-23.68Q6.24-22.44 6.24-20.48L6.24-20.48Q6.24-19.04 7.20-18.14Q8.16-17.24 9.58-16.74Q11-16.24 13.44-15.68L13.44-15.68Q16.60-14.92 18.52-14.16Q20.44-13.40 21.82-11.84Q23.20-10.28 23.20-7.64L23.20-7.64Q23.20-5.44 22-3.62Q20.80-1.80 18.36-0.74Q15.92 0.32 12.36 0.32L12.36 0.32Z M41.20-4L42.40-1.24Q41.56-0.52 40.32-0.14Q39.08 0.24 37.76 0.24L37.76 0.24Q34.56 0.24 32.80-1.48Q31.04-3.20 31.04-6.40L31.04-6.40L31.04-18.04L27.44-18.04L27.44-21.20L31.04-21.20L31.04-25.84L34.88-25.84L34.88-21.20L40.96-21.20L40.96-18.04L34.88-18.04L34.88-6.56Q34.88-4.84 35.74-3.92Q36.60-3 38.20-3L38.20-3Q39.96-3 41.20-4L41.20-4Z M52.72-17.64Q53.72-19.48 55.68-20.44Q57.64-21.40 60.44-21.40L60.44-21.40L60.44-17.68Q60.12-17.72 59.56-17.72L59.56-17.72Q56.44-17.72 54.66-15.86Q52.88-14 52.88-10.56L52.88-10.56L52.88 0L49.04 0L49.04-21.20L52.72-21.20L52.72-17.64Z M74.84-21.40Q79.24-21.40 81.58-19.24Q83.92-17.08 83.92-12.80L83.92-12.80L83.92 0L80.28 0L80.28-2.80Q79.32-1.32 77.54-0.54Q75.76 0.24 73.32 0.24L73.32 0.24Q69.76 0.24 67.62-1.48Q65.48-3.20 65.48-6L65.48-6Q65.48-8.80 67.52-10.50Q69.56-12.20 74-12.20L74-12.20L80.08-12.20L80.08-12.96Q80.08-15.44 78.64-16.76Q77.20-18.08 74.40-18.08L74.40-18.08Q72.52-18.08 70.72-17.46Q68.92-16.84 67.68-15.80L67.68-15.80L66.08-18.68Q67.72-20 70-20.70Q72.28-21.40 74.84-21.40L74.84-21.40ZM73.96-2.72Q76.16-2.72 77.76-3.70Q79.36-4.68 80.08-6.48L80.08-6.48L80.08-9.44L74.16-9.44Q69.28-9.44 69.28-6.16L69.28-6.16Q69.28-4.56 70.52-3.64Q71.76-2.72 73.96-2.72L73.96-2.72Z M103.76-4L104.96-1.24Q104.12-0.52 102.88-0.14Q101.64 0.24 100.32 0.24L100.32 0.24Q97.12 0.24 95.36-1.48Q93.60-3.20 93.60-6.40L93.60-6.40L93.60-18.04L90-18.04L90-21.20L93.60-21.20L93.60-25.84L97.44-25.84L97.44-21.20L103.52-21.20L103.52-18.04L97.44-18.04L97.44-6.56Q97.44-4.84 98.30-3.92Q99.16-3 100.76-3L100.76-3Q102.52-3 103.76-4L103.76-4Z M130.04-10.48Q130.04-10.04 129.96-9.32L129.96-9.32L112.76-9.32Q113.12-6.52 115.22-4.82Q117.32-3.12 120.44-3.12L120.44-3.12Q124.24-3.12 126.56-5.68L126.56-5.68L128.68-3.20Q127.24-1.52 125.10-0.64Q122.96 0.24 120.32 0.24L120.32 0.24Q116.96 0.24 114.36-1.14Q111.76-2.52 110.34-5Q108.92-7.48 108.92-10.60L108.92-10.60Q108.92-13.68 110.30-16.16Q111.68-18.64 114.10-20.02Q116.52-21.40 119.56-21.40L119.56-21.40Q122.60-21.40 124.98-20.02Q127.36-18.64 128.70-16.16Q130.04-13.68 130.04-10.48L130.04-10.48ZM119.56-18.16Q116.80-18.16 114.94-16.48Q113.08-14.80 112.76-12.08L112.76-12.08L126.36-12.08Q126.04-14.76 124.18-16.46Q122.32-18.16 119.56-18.16L119.56-18.16Z M154-21.20L157.64-21.20L157.64-2.88Q157.64 2.68 154.88 5.34Q152.12 8 146.64 8L146.64 8Q143.64 8 140.92 7.18Q138.20 6.36 136.52 4.84L136.52 4.84L138.36 1.88Q139.84 3.16 142.02 3.90Q144.20 4.64 146.52 4.64L146.52 4.64Q150.24 4.64 152.02 2.88Q153.80 1.12 153.80-2.48L153.80-2.48L153.80-4.16Q152.44-2.52 150.46-1.70Q148.48-0.88 146.16-0.88L146.16-0.88Q143.12-0.88 140.66-2.18Q138.20-3.48 136.80-5.82Q135.40-8.16 135.40-11.16L135.40-11.16Q135.40-14.16 136.80-16.50Q138.20-18.84 140.66-20.12Q143.12-21.40 146.16-21.40L146.16-21.40Q148.56-21.40 150.62-20.52Q152.68-19.64 154-17.92L154-17.92L154-21.20ZM146.60-4.24Q148.68-4.24 150.34-5.12Q152-6 152.94-7.58Q153.88-9.16 153.88-11.16L153.88-11.16Q153.88-14.24 151.84-16.14Q149.80-18.04 146.60-18.04L146.60-18.04Q143.36-18.04 141.32-16.14Q139.28-14.24 139.28-11.16L139.28-11.16Q139.28-9.16 140.22-7.58Q141.16-6 142.82-5.12Q144.48-4.24 146.60-4.24L146.60-4.24Z M166.96 0L166.96-21.20L170.80-21.20L170.80 0L166.96 0ZM168.88-25.28Q167.76-25.28 167.02-26Q166.28-26.72 166.28-27.76L166.28-27.76Q166.28-28.80 167.02-29.54Q167.76-30.28 168.88-30.28L168.88-30.28Q170-30.28 170.74-29.58Q171.48-28.88 171.48-27.84L171.48-27.84Q171.48-26.76 170.74-26.02Q170-25.28 168.88-25.28L168.88-25.28Z M189.36 0.24Q186.12 0.24 183.58-1.16Q181.04-2.56 179.60-5.02Q178.16-7.48 178.16-10.60L178.16-10.60Q178.16-13.72 179.60-16.18Q181.04-18.64 183.58-20.02Q186.12-21.40 189.36-21.40L189.36-21.40Q192.24-21.40 194.50-20.24Q196.76-19.08 198-16.88L198-16.88L195.08-15Q194.08-16.52 192.60-17.28Q191.12-18.04 189.32-18.04L189.32-18.04Q187.24-18.04 185.58-17.12Q183.92-16.20 182.98-14.50Q182.04-12.80 182.04-10.60L182.04-10.60Q182.04-8.36 182.98-6.66Q183.92-4.96 185.58-4.04Q187.24-3.12 189.32-3.12L189.32-3.12Q191.12-3.12 192.60-3.88Q194.08-4.64 195.08-6.16L195.08-6.16L198-4.32Q196.76-2.12 194.50-0.94Q192.24 0.24 189.36 0.24L189.36 0.24Z M222.28-3.48L238.60-3.48L238.60 0L218.28 0L218.28-28L238.04-28L238.04-24.52L222.28-24.52L222.28-15.92L236.32-15.92L236.32-12.52L222.28-12.52L222.28-3.48Z M262.40-29.68L266.24-29.68L266.24 0L262.56 0L262.56-3.36Q261.28-1.60 259.32-0.68Q257.36 0.24 255 0.24L255 0.24Q251.92 0.24 249.48-1.12Q247.04-2.48 245.66-4.94Q244.28-7.40 244.28-10.60L244.28-10.60Q244.28-13.80 245.66-16.24Q247.04-18.68 249.48-20.04Q251.92-21.40 255-21.40L255-21.40Q257.28-21.40 259.20-20.54Q261.12-19.68 262.40-18L262.40-18L262.40-29.68ZM255.32-3.12Q257.32-3.12 258.96-4.06Q260.60-5 261.52-6.70Q262.44-8.40 262.44-10.60L262.44-10.60Q262.44-12.80 261.52-14.50Q260.60-16.20 258.96-17.12Q257.32-18.04 255.32-18.04L255.32-18.04Q253.28-18.04 251.66-17.12Q250.04-16.20 249.10-14.50Q248.16-12.80 248.16-10.60L248.16-10.60Q248.16-8.40 249.10-6.70Q250.04-5 251.66-4.06Q253.28-3.12 255.32-3.12L255.32-3.12Z M291.44-21.20L295.28-21.20L295.28 0L291.64 0L291.64-3.20Q290.48-1.56 288.58-0.66Q286.68 0.24 284.44 0.24L284.44 0.24Q280.20 0.24 277.76-2.10Q275.32-4.44 275.32-9L275.32-9L275.32-21.20L279.16-21.20L279.16-9.44Q279.16-6.36 280.64-4.78Q282.12-3.20 284.88-3.20L284.88-3.20Q287.92-3.20 289.68-5.04Q291.44-6.88 291.44-10.24L291.44-10.24L291.44-21.20Z M313.84 0.24Q310.60 0.24 308.06-1.16Q305.52-2.56 304.08-5.02Q302.64-7.48 302.64-10.60L302.64-10.60Q302.64-13.72 304.08-16.18Q305.52-18.64 308.06-20.02Q310.60-21.40 313.84-21.40L313.84-21.40Q316.72-21.40 318.98-20.24Q321.24-19.08 322.48-16.88L322.48-16.88L319.56-15Q318.56-16.52 317.08-17.28Q315.60-18.04 313.80-18.04L313.80-18.04Q311.72-18.04 310.06-17.12Q308.40-16.20 307.46-14.50Q306.52-12.80 306.52-10.60L306.52-10.60Q306.52-8.36 307.46-6.66Q308.40-4.96 310.06-4.04Q311.72-3.12 313.80-3.12L313.80-3.12Q315.60-3.12 317.08-3.88Q318.56-4.64 319.56-6.16L319.56-6.16L322.48-4.32Q321.24-2.12 318.98-0.94Q316.72 0.24 313.84 0.24L313.84 0.24Z M337.16-21.40Q341.56-21.40 343.90-19.24Q346.24-17.08 346.24-12.80L346.24-12.80L346.24 0L342.60 0L342.60-2.80Q341.64-1.32 339.86-0.54Q338.08 0.24 335.64 0.24L335.64 0.24Q332.08 0.24 329.94-1.48Q327.80-3.20 327.80-6L327.80-6Q327.80-8.80 329.84-10.50Q331.88-12.20 336.32-12.20L336.32-12.20L342.40-12.20L342.40-12.96Q342.40-15.44 340.96-16.76Q339.52-18.08 336.72-18.08L336.72-18.08Q334.84-18.08 333.04-17.46Q331.24-16.84 330.00-15.80L330.00-15.80L328.40-18.68Q330.04-20 332.32-20.70Q334.60-21.40 337.16-21.40L337.16-21.40ZM336.28-2.72Q338.48-2.72 340.08-3.70Q341.68-4.68 342.40-6.48L342.40-6.48L342.40-9.44L336.48-9.44Q331.60-9.44 331.60-6.16L331.60-6.16Q331.60-4.56 332.84-3.64Q334.08-2.72 336.28-2.72L336.28-2.72Z M366.08-4L367.28-1.24Q366.44-0.52 365.20-0.14Q363.96 0.24 362.64 0.24L362.64 0.24Q359.44 0.24 357.68-1.48Q355.92-3.20 355.92-6.40L355.92-6.40L355.92-18.04L352.32-18.04L352.32-21.20L355.92-21.20L355.92-25.84L359.76-25.84L359.76-21.20L365.84-21.20L365.84-18.04L359.76-18.04L359.76-6.56Q359.76-4.84 360.62-3.92Q361.48-3 363.08-3L363.08-3Q364.84-3 366.08-4L366.08-4Z M373.92 0L373.92-21.20L377.76-21.20L377.76 0L373.92 0ZM375.84-25.28Q374.72-25.28 373.98-26Q373.24-26.72 373.24-27.76L373.24-27.76Q373.24-28.80 373.98-29.54Q374.72-30.28 375.84-30.28L375.84-30.28Q376.96-30.28 377.70-29.58Q378.44-28.88 378.44-27.84L378.44-27.84Q378.44-26.76 377.70-26.02Q376.96-25.28 375.84-25.28L375.84-25.28Z M396.16 0.24Q393 0.24 390.48-1.16Q387.96-2.56 386.54-5.02Q385.12-7.48 385.12-10.60L385.12-10.60Q385.12-13.72 386.54-16.18Q387.96-18.64 390.48-20.02Q393-21.40 396.16-21.40L396.16-21.40Q399.32-21.40 401.82-20.02Q404.32-18.64 405.74-16.18Q407.16-13.72 407.16-10.60L407.16-10.60Q407.16-7.48 405.74-5.02Q404.32-2.56 401.82-1.16Q399.32 0.24 396.16 0.24L396.16 0.24ZM396.16-3.12Q398.20-3.12 399.82-4.06Q401.44-5 402.36-6.70Q403.28-8.40 403.28-10.60L403.28-10.60Q403.28-12.80 402.36-14.50Q401.44-16.20 399.82-17.12Q398.20-18.04 396.16-18.04L396.16-18.04Q394.12-18.04 392.50-17.12Q390.88-16.20 389.94-14.50Q389-12.80 389-10.60L389-10.60Q389-8.40 389.94-6.70Q390.88-5 392.50-4.06Q394.12-3.12 396.16-3.12L396.16-3.12Z M425.80-21.40Q429.84-21.40 432.22-19.06Q434.60-16.72 434.60-12.20L434.60-12.20L434.60 0L430.76 0L430.76-11.76Q430.76-14.84 429.28-16.40Q427.80-17.96 425.04-17.96L425.04-17.96Q421.92-17.96 420.12-16.14Q418.32-14.32 418.32-10.92L418.32-10.92L418.32 0L414.48 0L414.48-21.20L418.16-21.20L418.16-18Q419.32-19.64 421.30-20.52Q423.28-21.40 425.80-21.40L425.80-21.40Z M479.68-2.12L477.52 0.44L473.80-3.28Q470.08 0.32 464.44 0.32L464.44 0.32Q461.64 0.32 459.40-0.60Q457.16-1.52 455.90-3.18Q454.64-4.84 454.64-6.96L454.64-6.96Q454.64-9.52 456.22-11.50Q457.80-13.48 461.44-15.56L461.44-15.56Q459.60-17.40 458.84-18.88Q458.08-20.36 458.08-21.96L458.08-21.96Q458.08-24.80 460.14-26.52Q462.20-28.24 465.64-28.24L465.64-28.24Q468.84-28.24 470.72-26.68Q472.60-25.12 472.60-22.40L472.60-22.40Q472.60-20.28 471.22-18.60Q469.84-16.92 466.64-15.08L466.64-15.08L473.56-8.20Q474.76-10.48 475.28-13.28L475.28-13.28L478.36-12.28Q477.64-8.60 475.92-5.88L475.92-5.88L479.68-2.12ZM465.64-25.44Q463.76-25.44 462.70-24.50Q461.64-23.56 461.64-22.04L461.64-22.04Q461.64-20.96 462.22-19.96Q462.80-18.96 464.48-17.24L464.48-17.24Q467.24-18.80 468.30-19.92Q469.36-21.04 469.36-22.36L469.36-22.36Q469.36-23.76 468.38-24.60Q467.40-25.44 465.64-25.44L465.64-25.44ZM464.68-2.88Q468.84-2.88 471.52-5.52L471.52-5.52L463.56-13.44Q460.68-11.84 459.54-10.46Q458.40-9.08 458.40-7.36L458.40-7.36Q458.40-5.36 460.14-4.12Q461.88-2.88 464.68-2.88L464.68-2.88Z M507.40 0.32Q504.24 0.32 501.30-0.66Q498.36-1.64 496.68-3.20L496.68-3.20L498.16-6.32Q499.76-4.88 502.26-3.98Q504.76-3.08 507.40-3.08L507.40-3.08Q510.88-3.08 512.60-4.26Q514.32-5.44 514.32-7.40L514.32-7.40Q514.32-8.84 513.38-9.74Q512.44-10.64 511.06-11.12Q509.68-11.60 507.16-12.20L507.16-12.20Q504.00-12.96 502.06-13.72Q500.12-14.48 498.74-16.06Q497.36-17.64 497.36-20.32L497.36-20.32Q497.36-22.56 498.54-24.36Q499.72-26.16 502.12-27.24Q504.52-28.32 508.08-28.32L508.08-28.32Q510.56-28.32 512.96-27.68Q515.36-27.04 517.08-25.84L517.08-25.84L515.76-22.64Q514-23.76 512.00-24.34Q510.00-24.92 508.08-24.92L508.08-24.92Q504.68-24.92 502.98-23.68Q501.28-22.44 501.28-20.48L501.28-20.48Q501.28-19.04 502.24-18.14Q503.20-17.24 504.62-16.74Q506.04-16.24 508.48-15.68L508.48-15.68Q511.64-14.92 513.56-14.16Q515.48-13.40 516.86-11.84Q518.24-10.28 518.24-7.64L518.24-7.64Q518.24-5.44 517.04-3.62Q515.84-1.80 513.40-0.74Q510.96 0.32 507.40 0.32L507.40 0.32Z M534.60 0.24Q531.44 0.24 528.92-1.16Q526.40-2.56 524.98-5.02Q523.56-7.48 523.56-10.60L523.56-10.60Q523.56-13.72 524.98-16.18Q526.40-18.64 528.92-20.02Q531.44-21.40 534.60-21.40L534.60-21.40Q537.76-21.40 540.26-20.02Q542.76-18.64 544.18-16.18Q545.60-13.72 545.60-10.60L545.60-10.60Q545.60-7.48 544.18-5.02Q542.76-2.56 540.26-1.16Q537.76 0.24 534.60 0.24L534.60 0.24ZM534.60-3.12Q536.64-3.12 538.26-4.06Q539.88-5 540.80-6.70Q541.72-8.40 541.72-10.60L541.72-10.60Q541.72-12.80 540.80-14.50Q539.88-16.20 538.26-17.12Q536.64-18.04 534.60-18.04L534.60-18.04Q532.56-18.04 530.94-17.12Q529.32-16.20 528.38-14.50Q527.44-12.80 527.44-10.60L527.44-10.60Q527.44-8.40 528.38-6.70Q529.32-5 530.94-4.06Q532.56-3.12 534.60-3.12L534.60-3.12Z M552.92 0L552.92-29.68L556.76-29.68L556.76 0L552.92 0Z M582.00-21.20L585.84-21.20L585.84 0L582.20 0L582.20-3.20Q581.04-1.56 579.14-0.66Q577.24 0.24 575.00 0.24L575.00 0.24Q570.76 0.24 568.32-2.10Q565.88-4.44 565.88-9L565.88-9L565.88-21.20L569.72-21.20L569.72-9.44Q569.72-6.36 571.20-4.78Q572.68-3.20 575.44-3.20L575.44-3.20Q578.48-3.20 580.24-5.04Q582.00-6.88 582.00-10.24L582.00-10.24L582.00-21.20Z M605.88-4L607.08-1.24Q606.24-0.52 605-0.14Q603.76 0.24 602.44 0.24L602.44 0.24Q599.24 0.24 597.48-1.48Q595.72-3.20 595.72-6.40L595.72-6.40L595.72-18.04L592.12-18.04L592.12-21.20L595.72-21.20L595.72-25.84L599.56-25.84L599.56-21.20L605.64-21.20L605.64-18.04L599.56-18.04L599.56-6.56Q599.56-4.84 600.42-3.92Q601.28-3 602.88-3L602.88-3Q604.64-3 605.88-4L605.88-4Z M613.72 0L613.72-21.20L617.56-21.20L617.56 0L613.72 0ZM615.64-25.28Q614.52-25.28 613.78-26Q613.04-26.72 613.04-27.76L613.04-27.76Q613.04-28.80 613.78-29.54Q614.52-30.28 615.64-30.28L615.64-30.28Q616.76-30.28 617.50-29.58Q618.24-28.88 618.24-27.84L618.24-27.84Q618.24-26.76 617.50-26.02Q616.76-25.28 615.64-25.28L615.64-25.28Z M635.96 0.24Q632.80 0.24 630.28-1.16Q627.76-2.56 626.34-5.02Q624.92-7.48 624.92-10.60L624.92-10.60Q624.92-13.72 626.34-16.18Q627.76-18.64 630.28-20.02Q632.80-21.40 635.96-21.40L635.96-21.40Q639.12-21.40 641.62-20.02Q644.12-18.64 645.54-16.18Q646.96-13.72 646.96-10.60L646.96-10.60Q646.96-7.48 645.54-5.02Q644.12-2.56 641.62-1.16Q639.12 0.24 635.96 0.24L635.96 0.24ZM635.96-3.12Q638.00-3.12 639.62-4.06Q641.24-5 642.16-6.70Q643.08-8.40 643.08-10.60L643.08-10.60Q643.08-12.80 642.16-14.50Q641.24-16.20 639.62-17.12Q638.00-18.04 635.96-18.04L635.96-18.04Q633.92-18.04 632.30-17.12Q630.68-16.20 629.74-14.50Q628.80-12.80 628.80-10.60L628.80-10.60Q628.80-8.40 629.74-6.70Q630.68-5 632.30-4.06Q633.92-3.12 635.96-3.12L635.96-3.12Z M665.60-21.40Q669.64-21.40 672.02-19.06Q674.40-16.72 674.40-12.20L674.40-12.20L674.40 0L670.56 0L670.56-11.76Q670.56-14.84 669.08-16.40Q667.60-17.96 664.84-17.96L664.84-17.96Q661.72-17.96 659.92-16.14Q658.12-14.32 658.12-10.92L658.12-10.92L658.12 0L654.28 0L654.28-21.20L657.96-21.20L657.96-18Q659.12-19.64 661.10-20.52Q663.08-21.40 665.60-21.40L665.60-21.40Z M689.60 0.24Q687.00 0.24 684.60-0.46Q682.20-1.16 680.84-2.24L680.84-2.24L682.44-5.28Q683.84-4.28 685.84-3.68Q687.84-3.08 689.88-3.08L689.88-3.08Q694.92-3.08 694.92-5.96L694.92-5.96Q694.92-6.92 694.24-7.48Q693.56-8.04 692.54-8.30Q691.52-8.56 689.64-8.88L689.64-8.88Q687.08-9.28 685.46-9.80Q683.84-10.32 682.68-11.56Q681.52-12.80 681.52-15.04L681.52-15.04Q681.52-17.92 683.92-19.66Q686.32-21.40 690.36-21.40L690.36-21.40Q692.48-21.40 694.60-20.88Q696.72-20.36 698.08-19.48L698.08-19.48L696.44-16.44Q693.84-18.12 690.32-18.12L690.32-18.12Q687.88-18.12 686.60-17.32Q685.32-16.52 685.32-15.20L685.32-15.20Q685.32-14.16 686.04-13.56Q686.76-12.96 687.82-12.68Q688.88-12.40 690.80-12.04L690.80-12.04Q693.36-11.60 694.94-11.10Q696.52-10.60 697.64-9.40Q698.76-8.20 698.76-6.04L698.76-6.04Q698.76-3.16 696.30-1.46Q693.84 0.24 689.60 0.24L689.60 0.24Z M722.88-3.48L739.20-3.48L739.20 0L718.88 0L718.88-28L738.64-28L738.64-24.52L722.88-24.52L722.88-15.92L736.92-15.92L736.92-12.52L722.88-12.52L722.88-3.48Z M758.44-21.40Q762.48-21.40 764.86-19.06Q767.24-16.72 767.24-12.20L767.24-12.20L767.24 0L763.40 0L763.40-11.76Q763.40-14.84 761.92-16.40Q760.44-17.96 757.68-17.96L757.68-17.96Q754.56-17.96 752.76-16.14Q750.96-14.32 750.96-10.92L750.96-10.92L750.96 0L747.12 0L747.12-21.20L750.80-21.20L750.80-18Q751.96-19.64 753.94-20.52Q755.92-21.40 758.44-21.40L758.44-21.40Z M787.08-4L788.28-1.24Q787.44-0.52 786.20-0.14Q784.96 0.24 783.64 0.24L783.64 0.24Q780.44 0.24 778.68-1.48Q776.92-3.20 776.92-6.40L776.92-6.40L776.92-18.04L773.32-18.04L773.32-21.20L776.92-21.20L776.92-25.84L780.76-25.84L780.76-21.20L786.84-21.20L786.84-18.04L780.76-18.04L780.76-6.56Q780.76-4.84 781.62-3.92Q782.48-3 784.08-3L784.08-3Q785.84-3 787.08-4L787.08-4Z M813.36-10.48Q813.36-10.04 813.28-9.32L813.28-9.32L796.08-9.32Q796.44-6.52 798.54-4.82Q800.64-3.12 803.76-3.12L803.76-3.12Q807.56-3.12 809.88-5.68L809.88-5.68L812.00-3.20Q810.56-1.52 808.42-0.64Q806.28 0.24 803.64 0.24L803.64 0.24Q800.28 0.24 797.68-1.14Q795.08-2.52 793.66-5Q792.24-7.48 792.24-10.60L792.24-10.60Q792.24-13.68 793.62-16.16Q795.00-18.64 797.42-20.02Q799.84-21.40 802.88-21.40L802.88-21.40Q805.92-21.40 808.30-20.02Q810.68-18.64 812.02-16.16Q813.36-13.68 813.36-10.48L813.36-10.48ZM802.88-18.16Q800.12-18.16 798.26-16.48Q796.40-14.80 796.08-12.08L796.08-12.08L809.68-12.08Q809.36-14.76 807.50-16.46Q805.64-18.16 802.88-18.16L802.88-18.16Z M824.36-17.64Q825.36-19.48 827.32-20.44Q829.28-21.40 832.08-21.40L832.08-21.40L832.08-17.68Q831.76-17.72 831.20-17.72L831.20-17.72Q828.08-17.72 826.30-15.86Q824.52-14 824.52-10.56L824.52-10.56L824.52 0L820.68 0L820.68-21.20L824.36-21.20L824.36-17.64Z M850.04-21.40Q853.12-21.40 855.56-20.04Q858.00-18.68 859.38-16.24Q860.76-13.80 860.76-10.60L860.76-10.60Q860.76-7.40 859.38-4.94Q858.00-2.48 855.56-1.12Q853.12 0.24 850.04 0.24L850.04 0.24Q847.76 0.24 845.86-0.64Q843.96-1.52 842.64-3.20L842.64-3.20L842.64 7.76L838.80 7.76L838.80-21.20L842.48-21.20L842.48-17.84Q843.76-19.60 845.72-20.50Q847.68-21.40 850.04-21.40L850.04-21.40ZM849.72-3.12Q851.76-3.12 853.38-4.06Q855.00-5 855.94-6.70Q856.88-8.40 856.88-10.60L856.88-10.60Q856.88-12.80 855.94-14.50Q855.00-16.20 853.38-17.12Q851.76-18.04 849.72-18.04L849.72-18.04Q847.72-18.04 846.10-17.10Q844.48-16.16 843.54-14.48Q842.60-12.80 842.60-10.60L842.60-10.60Q842.60-8.40 843.52-6.70Q844.44-5 846.08-4.06Q847.72-3.12 849.72-3.12L849.72-3.12Z M871.76-17.64Q872.76-19.48 874.72-20.44Q876.68-21.40 879.48-21.40L879.48-21.40L879.48-17.68Q879.16-17.72 878.60-17.72L878.60-17.72Q875.48-17.72 873.70-15.86Q871.92-14 871.92-10.56L871.92-10.56L871.92 0L868.08 0L868.08-21.20L871.76-21.20L871.76-17.64Z M886.20 0L886.20-21.20L890.04-21.20L890.04 0L886.20 0ZM888.12-25.28Q887.00-25.28 886.26-26Q885.52-26.72 885.52-27.76L885.52-27.76Q885.52-28.80 886.26-29.54Q887.00-30.28 888.12-30.28L888.12-30.28Q889.24-30.28 889.98-29.58Q890.72-28.88 890.72-27.84L890.72-27.84Q890.72-26.76 889.98-26.02Q889.24-25.28 888.12-25.28L888.12-25.28Z M905.44 0.24Q902.84 0.24 900.44-0.46Q898.04-1.16 896.68-2.24L896.68-2.24L898.28-5.28Q899.68-4.28 901.68-3.68Q903.68-3.08 905.72-3.08L905.72-3.08Q910.76-3.08 910.76-5.96L910.76-5.96Q910.76-6.92 910.08-7.48Q909.40-8.04 908.38-8.30Q907.36-8.56 905.48-8.88L905.48-8.88Q902.92-9.28 901.30-9.80Q899.68-10.32 898.52-11.56Q897.36-12.80 897.36-15.04L897.36-15.04Q897.36-17.92 899.76-19.66Q902.16-21.40 906.20-21.40L906.20-21.40Q908.32-21.40 910.44-20.88Q912.56-20.36 913.92-19.48L913.92-19.48L912.28-16.44Q909.68-18.12 906.16-18.12L906.16-18.12Q903.72-18.12 902.44-17.32Q901.16-16.52 901.16-15.20L901.16-15.20Q901.16-14.16 901.88-13.56Q902.60-12.96 903.66-12.68Q904.72-12.40 906.64-12.04L906.64-12.04Q909.20-11.60 910.78-11.10Q912.36-10.60 913.48-9.40Q914.60-8.20 914.60-6.04L914.60-6.04Q914.60-3.16 912.14-1.46Q909.68 0.24 905.44 0.24L905.44 0.24Z M940.56-10.48Q940.56-10.04 940.48-9.32L940.48-9.32L923.28-9.32Q923.64-6.52 925.74-4.82Q927.84-3.12 930.96-3.12L930.96-3.12Q934.76-3.12 937.08-5.68L937.08-5.68L939.20-3.20Q937.76-1.52 935.62-0.64Q933.48 0.24 930.84 0.24L930.84 0.24Q927.48 0.24 924.88-1.14Q922.28-2.52 920.86-5Q919.44-7.48 919.44-10.60L919.44-10.60Q919.44-13.68 920.82-16.16Q922.20-18.64 924.62-20.02Q927.04-21.40 930.08-21.40L930.08-21.40Q933.12-21.40 935.50-20.02Q937.88-18.64 939.22-16.16Q940.56-13.68 940.56-10.48L940.56-10.48ZM930.08-18.16Q927.32-18.16 925.46-16.48Q923.60-14.80 923.28-12.08L923.28-12.08L936.88-12.08Q936.56-14.76 934.70-16.46Q932.84-18.16 930.08-18.16L930.08-18.16Z"/></g>
</svg>
</g><g opacity="1" transform="rotate(0 446.0881 329.8138)">
<svg width="264.5406" height="63.005" x="446.0881" y="329.8138" version="1.1" preserveAspectRatio="none" viewBox="1.88 -29.88 127.63999999999999 30.4">
  <g transform="matrix(1 0 0 1 0 0)" class="aD6z1nYkhcolor"><path id="id-D6z1nYkh5" d="M12.16 0.52C18.28 0.52 22.12-3.16 22.12-7.80C22.12-12.16 19.48-14.16 16.08-15.64L11.88-17.44C9.60-18.40 7.04-19.48 7.04-22.32C7.04-24.96 9.20-26.64 12.52-26.64C15.24-26.64 17.40-25.56 19.20-23.88L21.16-26.24C19.08-28.40 16-29.88 12.52-29.88C7.20-29.88 3.28-26.60 3.28-22.08C3.28-17.80 6.52-15.72 9.24-14.56L13.48-12.72C16.24-11.48 18.36-10.52 18.36-7.52C18.36-4.64 16.04-2.72 12.20-2.72C9.16-2.72 6.20-4.16 4.08-6.36L1.88-3.84C4.44-1.16 8 0.52 12.16 0.52Z M29.88 0L47.24 0L47.24-3.16L33.60-3.16L33.60-13.84L44.72-13.84L44.72-17L33.60-17L33.60-26.20L46.80-26.20L46.80-29.32L29.88-29.32Z M55.40 0L58.92 0L58.92-15.40C58.92-18.48 58.64-21.60 58.48-24.56L58.64-24.56L61.80-18.52L72.48 0L76.28 0L76.28-29.32L72.76-29.32L72.76-14.08C72.76-11.04 73.04-7.76 73.24-4.80L73.04-4.80L69.92-10.84L59.24-29.32L55.40-29.32Z M94.44 0.52C100.56 0.52 104.40-3.16 104.40-7.80C104.40-12.16 101.76-14.16 98.36-15.64L94.16-17.44C91.88-18.40 89.32-19.48 89.32-22.32C89.32-24.96 91.48-26.64 94.80-26.64C97.52-26.64 99.68-25.56 101.48-23.88L103.44-26.24C101.36-28.40 98.28-29.88 94.80-29.88C89.48-29.88 85.56-26.60 85.56-22.08C85.56-17.80 88.80-15.72 91.52-14.56L95.76-12.72C98.52-11.48 100.64-10.52 100.64-7.52C100.64-4.64 98.32-2.72 94.48-2.72C91.44-2.72 88.48-4.16 86.36-6.36L84.16-3.84C86.72-1.16 90.28 0.52 94.44 0.52Z M112.16 0L129.52 0L129.52-3.16L115.88-3.16L115.88-13.84L127-13.84L127-17L115.88-17L115.88-26.20L129.08-26.20L129.08-29.32L112.16-29.32Z"/></g>
</svg>
</g><g opacity="1" transform="rotate(0 355.7131 311.8281)">
<svg width="90.375" height="90.3748" x="355.7131" y="311.8281" version="1.1" preserveAspectRatio="none" viewBox="0 0 90.375 90.3748">
  <rect x="0" y="0" width="90.375" height="90.3748" class="atBXipXk0bfillColor text-str" style="stroke-width:0;" rx="0px" ry="0px" />
</svg>
</g><g opacity="1" transform="rotate(0 324.0016 327.5002)">
<svg width="109.7056" height="85.3894" x="324.0016" y="327.5002" version="1.1" preserveAspectRatio="none" viewBox="8.320001602172852 14.279999732971191 46.849998474121094 36.470001220703125">
  <g transform="matrix(1 0 0 1 0 0)" class="aIptOCySncolors-0"><title>35, idea, smart, insight, concept, brain</title><g><path d="M48.18,41.88,43.52,31H55.17Zm-30.13.82a.78.78,0,0,0,0,.3H13.93l7.22-10.23Zm-5.73-.89-4-12,13.55-1.59Zm5.49-25,4.66,9.31L9.27,27.73ZM42,27.63,35.84,14.57,46.6,17.64ZM40.28,28.7,25.74,26.28,33.82,15ZM24.15,25.07l-4.62-9.25,12.33-1.54Zm16.63,5.74L29.48,42.1,25.41,28.25ZM42,32.45,46.48,43H31.41ZM43.56,29l4.61-10,6.92,10ZM19.87,43.44A.5.5,0,0,0,20,43.3l4-12.86,4,13.7v6.61Z"></path></g></g>
</svg>
</g></svg>